<?xml version="1.0" encoding="UTF-8" standalone="no"?><!DOCTYPE svg PUBLIC "-//W3C//DTD SVG 1.1//EN" "http://www.w3.org/Graphics/SVG/1.1/DTD/svg11.dtd"><svg width="100%" height="100%" viewBox="0 0 72 66" version="1.1" xmlns="http://www.w3.org/2000/svg" xmlns:xlink="http://www.w3.org/1999/xlink" xml:space="preserve" xmlns:serif="http://www.serif.com/" style="fill-rule:evenodd;clip-rule:evenodd;stroke-linejoin:round;stroke-miterlimit:2;"><g><rect x="18.733" y="3.837" width="33.972" height="58.662" style="fill:#cce2e8;fill-rule:nonzero;"/><path d="M54.865,52.663l7.419,0l0,-24.723l-7.419,4.583l0,20.14Z" style="fill:#66a9b9;fill-rule:nonzero;"/><path d="M71.72,52.663l-4.367,0l0,-27.192l4.367,5.042l0,22.15Z" style="fill:#66a9b9;fill-rule:nonzero;"/><rect x="47.936" y="29.35" width="6.929" height="23.313" style="fill:#66a9b9;fill-rule:nonzero;"/><rect x="50.545" y="26.313" width="4.32" height="3.253" style="fill:#66a9b9;fill-rule:nonzero;"/><rect x="41.006" y="24.429" width="6.93" height="28.234" style="fill:#66a9b9;fill-rule:nonzero;"/><rect x="42.313" y="20.491" width="4.317" height="3.938" style="fill:#66a9b9;fill-rule:nonzero;"/><path d="M45.675,20.491l-2.408,0l0,-6.331l1.207,-2.767l1.201,2.767l0,6.331Z" style="fill:#66a9b9;fill-rule:nonzero;"/><rect x="61.795" y="40.879" width="5.558" height="11.784" style="fill:#66a9b9;fill-rule:nonzero;"/><rect x="62.845" y="39.233" width="3.461" height="1.646" style="fill:#66a9b9;fill-rule:nonzero;"/><path d="M65.54,39.233l-1.933,0l0,-1.643l0.97,-1.801l0.963,1.801l0,1.643Z" style="fill:#66a9b9;fill-rule:nonzero;"/><rect x="21.178" y="34.804" width="5.559" height="17.859" style="fill:#66a9b9;fill-rule:nonzero;"/><rect x="22.225" y="32.313" width="3.465" height="2.491" style="fill:#66a9b9;fill-rule:nonzero;"/><path d="M24.924,32.313l-1.93,0l0,-2.489l0.967,-2.729l0.963,2.729l0,2.489Z" style="fill:#66a9b9;fill-rule:nonzero;"/><path d="M41.006,52.663l-2.411,0l0,-13.994l1.207,-15.321l1.204,15.321l0,13.994Z" style="fill:#66a9b9;fill-rule:nonzero;"/><path d="M25.662,52.663l-6.929,0l0,-17.775l6.929,3.296l0,14.479Z" style="fill:#66a9b9;fill-rule:nonzero;"/><path d="M41.66,52.663l-4.366,0l0,-17.775l4.366,3.296l0,14.479Z" style="fill:#66a9b9;fill-rule:nonzero;"/><rect x="7.502" y="28.833" width="6.933" height="23.83" style="fill:#66a9b9;fill-rule:nonzero;"/><rect x="8.811" y="25.508" width="4.318" height="3.325" style="fill:#66a9b9;fill-rule:nonzero;"/><rect x="0" y="37.959" width="6.929" height="14.704" style="fill:#66a9b9;fill-rule:nonzero;"/><rect x="1.306" y="35.908" width="4.317" height="2.051" style="fill:#66a9b9;fill-rule:nonzero;"/><path d="M4.669,35.908l-2.409,0l0,-3.299l1.205,-3.608l1.204,3.608l0,3.299Z" style="fill:#66a9b9;fill-rule:nonzero;"/><rect x="26.737" y="40.876" width="5.556" height="11.787" style="fill:#66a9b9;fill-rule:nonzero;"/><rect x="27.784" y="39.232" width="3.46" height="1.644" style="fill:#66a9b9;fill-rule:nonzero;"/><path d="M30.484,39.232l-1.936,0l0,-1.641l0.968,-1.802l0.968,1.802l0,1.641Z" style="fill:#66a9b9;fill-rule:nonzero;"/><rect x="31.738" y="28.827" width="5.556" height="23.836" style="fill:#66a9b9;fill-rule:nonzero;"/><rect x="32.782" y="22.02" width="3.462" height="6.807" style="fill:#66a9b9;fill-rule:nonzero;"/><path d="M35.484,25.501l-1.933,0l0,-3.324l0.963,-3.638l0.97,3.638l0,3.324Z" style="fill:#66a9b9;fill-rule:nonzero;"/><path d="M17.873,52.663l-2.41,0l0,-11.27l1.205,-12.336l1.205,12.336l0,11.27Z" style="fill:#66a9b9;fill-rule:nonzero;"/><path d="M52.045,58.989l-32.574,0l0,-51.695l32.574,0l0,51.695Zm0.039,-58.989l-32.654,0c-1.563,0 -2.831,1.333 -2.831,2.979l0,59.823c0,1.645 1.268,2.98 2.831,2.98l32.654,0c1.563,0 2.831,-1.335 2.831,-2.98l0,-59.823c0,-1.646 -1.268,-2.979 -2.831,-2.979Z" style="fill:#001c22;fill-rule:nonzero;"/><path d="M40.182,2.665l-8.848,0c-0.648,0 -1.171,0.525 -1.171,1.172c0,0.645 0.523,1.171 1.171,1.171l8.848,0c0.646,0 1.169,-0.526 1.169,-1.171c0,-0.647 -0.523,-1.172 -1.169,-1.172Z" style="fill:#006f8a;fill-rule:nonzero;"/><path d="M35.757,60.436c-1.012,0 -1.833,0.82 -1.833,1.833c0,1.012 0.821,1.833 1.833,1.833c1.012,0 1.832,-0.821 1.832,-1.833c0,-1.013 -0.82,-1.833 -1.832,-1.833Z" style="fill:#006f8a;fill-rule:nonzero;"/><path d="M39.401,3.014l-7.41,0c-0.543,0 -0.982,0.367 -0.982,0.823c0,0.454 0.439,0.821 0.982,0.821l7.41,0c0.542,0 0.982,-0.367 0.982,-0.821c0,-0.456 -0.44,-0.823 -0.982,-0.823Z" style="fill:#003845;fill-rule:nonzero;"/><path d="M46.33,52.663c0,0.644 -2.923,1.166 -6.529,1.166c-3.607,0 -6.53,-0.522 -6.53,-1.166c0,-0.645 2.923,-1.167 6.53,-1.167c3.606,0 6.529,0.522 6.529,1.167Z" style="fill:#005368;fill-rule:nonzero;"/><path d="M45.255,32.858c0,3.141 -2.546,5.688 -5.687,5.688c-3.141,0 -5.688,-2.547 -5.688,-5.688c0,-3.141 2.547,-5.687 5.688,-5.687c3.141,0 5.687,2.546 5.687,5.687Z" style="fill:#001c22;fill-rule:nonzero;"/><path d="M39.799,37.635c-2.673,0 -4.836,-2.165 -4.836,-4.835c0,-2.67 2.163,-4.836 4.836,-4.836c2.673,0 4.836,2.166 4.836,4.836c0,2.67 -2.163,4.835 -4.836,4.835Zm0,-13.931c-4.862,0 -8.806,3.943 -8.806,8.805c0,4.865 8.806,20.068 8.806,20.068c0,0 8.809,-15.203 8.809,-20.068c0,-4.862 -3.946,-8.805 -8.809,-8.805Z" style="fill:#ff3f40;fill-rule:nonzero;"/><path d="M39.799,37.635c-2.673,0 -4.836,-2.165 -4.836,-4.835c0,-2.67 2.163,-4.836 4.836,-4.836c2.673,0 4.836,2.166 4.836,4.836c0,2.67 -2.163,4.835 -4.836,4.835Zm0,-10.75c-3.27,0 -5.919,2.648 -5.919,5.915c0,3.27 2.649,5.919 5.919,5.919c3.27,0 5.918,-2.649 5.918,-5.919c0,-3.267 -2.648,-5.915 -5.918,-5.915Z" style="fill:#cce2e8;fill-rule:nonzero;"/></g></svg>