<?xml version="1.0" encoding="UTF-8" standalone="no"?><!DOCTYPE svg PUBLIC "-//W3C//DTD SVG 1.1//EN" "http://www.w3.org/Graphics/SVG/1.1/DTD/svg11.dtd"><svg width="100%" height="100%" viewBox="0 0 73 78" version="1.1" xmlns="http://www.w3.org/2000/svg" xmlns:xlink="http://www.w3.org/1999/xlink" xml:space="preserve" xmlns:serif="http://www.serif.com/" style="fill-rule:evenodd;clip-rule:evenodd;stroke-linejoin:round;stroke-miterlimit:2;"><g><path d="M15.624,0.473c-9.44,2.025 -15.624,5.394 -15.624,9.209l0,44.888c0,-3.815 6.184,-7.183 15.624,-9.208l0,-44.889Z" style="fill:#338ca1;fill-rule:nonzero;"/><path d="M57.099,0.473l0,44.889c8.747,1.877 14.693,4.909 15.515,8.381l0,-43.235c0.065,-0.273 0.109,-0.549 0.109,-0.826c0,-3.815 -6.184,-7.184 -15.624,-9.209Z" style="fill:#66a9b9;fill-rule:nonzero;"/><path d="M7.812,47.629l0,-44.889c-4.891,1.908 -7.812,4.319 -7.812,6.942l0,44.888c0,-2.622 2.921,-5.032 7.812,-6.941Z" style="fill:#006f8a;fill-rule:nonzero;"/><path d="M23.47,8.748c0.698,0.68 1.562,1.176 2.553,1.176c1.141,0 1.895,-0.496 1.895,-1.379c0,-1.029 -0.607,-1.672 -3.143,-1.672l0,-1.911c2.095,0 2.756,-0.625 2.756,-1.563c0,-0.809 -0.514,-1.286 -1.433,-1.286c-0.827,0 -1.452,0.386 -2.187,1.029l-1.36,-1.655c1.066,-0.918 2.242,-1.487 3.676,-1.487c2.407,0 4.024,1.158 4.024,3.197c0,1.213 -0.698,2.058 -1.948,2.591l0,0.075c1.341,0.385 2.315,1.341 2.315,2.849c0,2.167 -1.984,3.399 -4.337,3.399c-1.892,0 -3.216,-0.662 -4.061,-1.655l1.25,-1.708Z" style="fill:#ff3f40;fill-rule:nonzero;"/><path d="M38.099,8.197c0,-1.233 -0.643,-1.692 -1.525,-1.692c-0.588,0 -1.232,0.313 -1.765,1.158c0.239,1.838 1.011,2.426 1.82,2.426c0.808,0 1.47,-0.57 1.47,-1.892Zm0.882,-5.184c-0.404,-0.441 -1.139,-0.827 -1.819,-0.827c-1.287,0 -2.316,0.92 -2.408,3.64c0.607,-0.772 1.618,-1.232 2.334,-1.232c2.004,0 3.474,1.14 3.474,3.603c0,2.425 -1.765,3.914 -3.878,3.914c-2.261,0 -4.411,-1.691 -4.411,-5.789c0,-4.356 2.26,-6.322 4.723,-6.322c1.544,0 2.666,0.642 3.4,1.396l-1.415,1.617Z" style="fill:#ff3f40;fill-rule:nonzero;"/><path d="M47.692,6.01c0,-3.199 -0.698,-3.916 -1.617,-3.916c-0.9,0 -1.617,0.717 -1.617,3.916c0,3.178 0.717,4.005 1.617,4.005c0.919,0 1.617,-0.827 1.617,-4.005Zm-5.789,0c0,-3.971 1.673,-6.01 4.172,-6.01c2.5,0 4.172,2.039 4.172,6.01c0,3.969 -1.672,6.101 -4.172,6.101c-2.499,0 -4.172,-2.132 -4.172,-6.101Z" style="fill:#ff3f40;fill-rule:nonzero;"/><path d="M72.614,53.743l0,-43.235c-1.375,5.805 -17.074,10.385 -36.252,10.385c-20.082,0 -36.362,-5.02 -36.362,-11.211l0,45.715l0.109,0c1.375,5.806 17.074,10.385 36.253,10.385c20.081,0 36.361,-5.02 36.361,-11.212c0,-0.279 -0.044,-0.554 -0.109,-0.827Z" style="fill:#cce2e8;fill-rule:nonzero;"/><path d="M54.313,33.818c0,1.854 -1.503,3.357 -3.357,3.357c-1.854,0 -3.357,-1.503 -3.357,-3.357c0,-1.854 1.503,-3.357 3.357,-3.357c1.854,0 3.357,1.503 3.357,3.357Z" style="fill:#ff3f40;fill-rule:nonzero;"/><path d="M13.726,37.62l0.01,0l-0.01,-0.185c0,-2.314 1.951,-4.19 4.357,-4.19c0.683,0 1.327,0.156 1.903,0.425c0.929,-1.276 2.466,-2.113 4.21,-2.113c2.019,0 3.761,1.123 4.601,2.752c0.681,-0.434 1.502,-0.689 2.389,-0.689c2.352,0 4.259,1.792 4.259,4.002c0,2.055 -1.649,3.746 -3.771,3.974l0,0.028l-17.948,0c-1.15,0 -2.082,-0.896 -2.082,-2.002c0,-1.106 0.932,-2.002 2.082,-2.002Z" style="fill:#fff;fill-rule:nonzero;"/><path d="M48.005,39.741l0.006,0.001l-0.006,-0.13c0,-1.623 1.253,-2.939 2.799,-2.939c0.439,0 0.853,0.109 1.222,0.298c0.597,-0.895 1.585,-1.482 2.705,-1.482c1.297,0 2.416,0.788 2.956,1.931c0.438,-0.305 0.966,-0.484 1.535,-0.484c1.511,0 2.736,1.257 2.736,2.807c0,1.441 -1.059,2.628 -2.423,2.787l0,0.02l-11.53,0c-0.739,0 -1.338,-0.629 -1.338,-1.404c0,-0.776 0.599,-1.405 1.338,-1.405Z" style="fill:#fff;fill-rule:nonzero;"/><g><clipPath id="_clip1"><path d="M72.614,51.461l0,-43.235c-1.375,8.087 -17.074,12.667 -36.252,12.667c-20.082,0 -36.362,-5.02 -36.362,-13.494l0,45.716l0.109,2.282c1.375,5.806 17.074,10.385 36.253,10.385c20.082,0 36.361,-5.02 36.361,-11.212c0,-0.279 -0.044,-0.554 -0.109,-3.109Z"/></clipPath><g clip-path="url(#_clip1)"><path d="M0,64.257l21.815,-24.463l9.339,6.481l12.692,-11.886l28.877,27.715l-38.574,15.458l-34.149,-13.305Z" style="fill:#001c22;fill-rule:nonzero;"/><path d="M43.846,34.389c0,0 3.897,13.645 2.852,16.402c-1.046,2.757 -12.549,26.771 -12.549,26.771l38.574,-15.458l-28.877,-27.715Z" style="fill:#003845;fill-rule:nonzero;"/><path d="M21.815,39.794l5.583,17.726l0.572,5.82l3.184,-17.065l-9.339,-6.481Z" style="fill:#003845;fill-rule:nonzero;"/><path d="M43.828,34.279l-5.364,5.15l3.1,-0.806l0.38,1.616l1.617,-1.22l1.901,0.775l-1.634,-5.515Z" style="fill:#99c5d0;fill-rule:nonzero;"/><path d="M50.335,40.105l-6.507,-5.826l1.634,5.515l1.022,-1.041l3.851,1.352Z" style="fill:#fff;fill-rule:nonzero;"/><path d="M18.283,43.386l3.46,-3.866l1.802,5.151l-1.73,-1.854l-0.821,0.999l-0.891,-1.034l-1.82,0.604Z" style="fill:#99c5d0;fill-rule:nonzero;"/><path d="M21.743,39.52l3.898,2.929l-1.902,0.582l-0.194,1.64l-1.802,-5.151Z" style="fill:#fff;fill-rule:nonzero;"/></g></g></g></svg>