<?xml version="1.0" encoding="UTF-8" standalone="no"?><!DOCTYPE svg PUBLIC "-//W3C//DTD SVG 1.1//EN" "http://www.w3.org/Graphics/SVG/1.1/DTD/svg11.dtd"><svg width="100%" height="100%" viewBox="0 0 30 52" version="1.1" xmlns="http://www.w3.org/2000/svg" xmlns:xlink="http://www.w3.org/1999/xlink" xml:space="preserve" xmlns:serif="http://www.serif.com/" style="fill-rule:evenodd;clip-rule:evenodd;stroke-linejoin:round;stroke-miterlimit:2;"><g><path d="M29.819,35.735c0,0.773 -0.627,1.4 -1.4,1.4l-27.019,0c-0.773,0 -1.4,-0.627 -1.4,-1.4l0,-34.336c0,-0.772 0.627,-1.399 1.4,-1.399l27.019,0c0.773,0 1.4,0.627 1.4,1.399l0,34.336Z" style="fill:#3e4260;fill-rule:nonzero;"/><rect x="1.215" y="1.441" width="27.441" height="34.067" style="fill:#fff;fill-rule:nonzero;"/><g><path d="M10.551,14.464c-1.953,0 -3.541,1.588 -3.541,3.54c0,1.953 1.588,3.541 3.541,3.541c1.952,0 3.54,-1.588 3.54,-3.541c0,-1.952 -1.588,-3.54 -3.54,-3.54Zm0,8.121c-2.526,0 -4.581,-2.055 -4.581,-4.581c0,-2.526 2.055,-4.581 4.581,-4.581c2.525,0 4.58,2.055 4.58,4.581c0,2.526 -2.055,4.581 -4.58,4.581Z" style="fill:#00aeef;fill-rule:nonzero;"/><path d="M10.551,12.388c-3.097,0 -5.617,2.519 -5.617,5.616c0,3.097 2.52,5.617 5.617,5.617c3.096,0 5.616,-2.52 5.616,-5.617c0,-3.097 -2.52,-5.616 -5.616,-5.616Zm0,12.273c-3.671,0 -6.657,-2.986 -6.657,-6.657c0,-3.67 2.986,-6.656 6.657,-6.656c3.67,0 6.656,2.986 6.656,6.656c0,3.671 -2.986,6.657 -6.656,6.657Z" style="fill:#00aeef;fill-rule:nonzero;"/><path d="M26.718,30.98c0,-1.281 -1.019,-2.32 -2.275,-2.32l-0.046,0c-1.203,0 -2.187,0.952 -2.269,2.157l0,-1.136c0,-1.281 -1.018,-2.32 -2.275,-2.32l-0.046,0c-1.203,0 -2.186,0.952 -2.269,2.158l0,-1.136c0,-1.281 -1.018,-2.32 -2.274,-2.32l-0.047,0c-1.202,0 -2.186,0.952 -2.269,2.157l0,-10.003c0,-1.281 -1.018,-2.32 -2.274,-2.32l-0.046,0c-1.257,0 -2.275,1.039 -2.275,2.32l0,14.42c-0.233,0.011 -0.463,0.036 -0.687,0.075l0,-3.182c0,-1.933 -1.539,-3.5 -3.437,-3.5l-0.382,0c-0.383,0 -0.694,0.317 -0.694,0.707l0,13.598c0,6.443 5.222,11.665 11.665,11.665l0.235,0c6.017,0 10.969,-4.556 11.597,-10.405l0.068,0l0,-10.615Z" style="fill:#4c4c4e;fill-rule:nonzero;"/></g></g></svg>